<svg role="img" viewBox="0 0 24 24" xmlns="http://www.w3.org/2000/svg">
<title>CodePen icon</title>
<path d="M 11.00,1.01 C 11.00,1.01 11.00,7.50 11.00,7.50M 1.01,14.50 C 1.01,14.50 11.00,7.50 11.00,7.50 11.00,7.50 20.99,14.50 20.99,14.50M 20.99,7.50 C 20.99,7.50 11.00,14.50 11.00,14.50 11.00,14.50 1.01,7.50 1.01,7.50M 11.00,20.99 C 11.00,20.99 11.00,14.50 11.00,14.50M 20.99,14.50 C 20.99,14.50 11.00,20.99 11.00,20.99 11.00,20.99 1.01,14.50 1.01,14.50 1.01,14.50 1.01,7.50 1.01,7.50 1.01,7.50 11.00,1.01 11.00,1.01 11.00,1.01 20.99,7.50 20.99,7.50 20.99,7.50 20.99,14.50 20.99,14.50 Z"></path>
</svg>